<?xml version="1.0" encoding="utf-8"?>
<svg xmlns="http://www.w3.org/2000/svg" viewBox="0 0 500 500">
  <style>
    .st0{fill:#FFFFFF;}
    .st1{fill:#F0F0F0;}
    .st2{fill:#CCCCCC;}
    .st3{fill:#E6E6E6;}
    .st4{fill:#8A2BE2;}
    .st5{fill:#A45EE5;}
  </style>
  <g>
    <path class="st0" d="M399.5,222.8c-0.8-1.3-1.6-2.6-2.4-3.9c-4.8-7.7-10-15.2-15.8-22.3c-3.8-4.7-7.9-9.3-12.1-13.7
      c-4.2-4.4-8.6-8.7-13.1-12.8c-9-8.2-18.6-15.7-28.7-22.5c-10.1-6.8-20.7-12.8-31.7-18c-5.5-2.6-11.1-5-16.8-7.2
      c-5.7-2.2-11.4-4.2-17.2-6c-11.6-3.6-23.4-6.4-35.3-8.3c-11.9-1.9-24-2.8-36-2.8c-12,0-24.1,0.9-36,2.8c-11.9,1.9-23.7,4.7-35.3,8.3
      c-5.8,1.8-11.5,3.8-17.2,6c-5.7,2.2-11.3,4.6-16.8,7.2c-11,5.2-21.6,11.2-31.7,18c-10.1,6.8-19.7,14.3-28.7,22.5
      c-4.5,4.1-8.9,8.4-13.1,12.8c-4.2,4.4-8.3,9-12.1,13.7c-5.8,7.1-11,14.6-15.8,22.3c-0.8,1.3-1.6,2.6-2.4,3.9
      c-4.8,7.7-9.1,15.7-13,23.9c-3.9,8.2-7.3,16.7-10.2,25.3c-2.9,8.6-5.3,17.4-7.2,26.3c-1.9,8.9-3.3,17.9-4.2,27
      c-0.9,9.1-1.3,18.2-1.3,27.3c0,9.1,0.4,18.2,1.3,27.3c0.9,9.1,2.3,18.1,4.2,27c1.9,8.9,4.3,17.7,7.2,26.3c2.9,8.6,6.3,17.1,10.2,25.3
      c3.9,8.2,8.2,16.2,13,23.9c0.8,1.3,1.6,2.6,2.4,3.9c4.8,7.7,10,15.2,15.8,22.3c3.8,4.7,7.9,9.3,12.1,13.7c4.2,4.4,8.6,8.7,13.1,12.8
      c9,8.2,18.6,15.7,28.7,22.5c10.1,6.8,20.7,12.8,31.7,18c5.5,2.6,11.1,5,16.8,7.2c5.7,2.2,11.4,4.2,17.2,6c11.6,3.6,23.4,6.4,35.3,8.3
      c11.9,1.9,24,2.8,36,2.8c12,0,24.1-0.9,36-2.8c11.9-1.9,23.7-4.7,35.3-8.3c5.8-1.8,11.5-3.8,17.2-6c5.7-2.2,11.3-4.6,16.8-7.2
      c11-5.2,21.6-11.2,31.7-18c10.1-6.8,19.7-14.3,28.7-22.5c4.5-4.1,8.9-8.4,13.1-12.8c4.2-4.4,8.3-9,12.1-13.7
      c5.8-7.1,11-14.6,15.8-22.3c0.8-1.3,1.6-2.6,2.4-3.9c4.8-7.7,9.1-15.7,13-23.9c3.9-8.2,7.3-16.7,10.2-25.3
      c2.9-8.6,5.3-17.4,7.2-26.3c1.9-8.9,3.3-17.9,4.2-27c0.9-9.1,1.3-18.2,1.3-27.3c0-9.1-0.4-18.2-1.3-27.3c-0.9-9.1-2.3-18.1-4.2-27
      c-1.9-8.9-4.3-17.7-7.2-26.3c-2.9-8.6-6.3-17.1-10.2-25.3C408.6,238.5,404.3,230.5,399.5,222.8z"/>
    <path class="st1" d="M250,106.8c-79.1,0-143.2,64.1-143.2,143.2S170.9,393.2,250,393.2S393.2,329.1,393.2,250
      S329.1,106.8,250,106.8z M250,373.2c-68.1,0-123.2-55.1-123.2-123.2S181.9,126.8,250,126.8S373.2,181.9,373.2,250
      S318.1,373.2,250,373.2z"/>
    <path class="st2" d="M250,146.8c-56.9,0-103.2,46.3-103.2,103.2S193.1,353.2,250,353.2S353.2,306.9,353.2,250
      S306.9,146.8,250,146.8z M250,333.2c-45.9,0-83.2-37.3-83.2-83.2s37.3-83.2,83.2-83.2s83.2,37.3,83.2,83.2S295.9,333.2,250,333.2z"
      />
    <path class="st3" d="M250,186.8c-34.7,0-63.2,28.5-63.2,63.2s28.5,63.2,63.2,63.2s63.2-28.5,63.2-63.2S284.7,186.8,250,186.8z
      M250,293.2c-23.7,0-43.2-19.5-43.2-43.2s19.5-43.2,43.2-43.2s43.2,19.5,43.2,43.2S273.7,293.2,250,293.2z"/>
    <path class="st4" d="M250,226.8c-12.7,0-23.2,10.5-23.2,23.2s10.5,23.2,23.2,23.2s23.2-10.5,23.2-23.2S262.7,226.8,250,226.8z"/>
    <path class="st5" d="M250,236.8c-7.2,0-13.2,6-13.2,13.2s6,13.2,13.2,13.2s13.2-6,13.2-13.2S257.2,236.8,250,236.8z"/>
    <path class="st4" d="M320,180c0,0-20-30-70-30s-70,30-70,30s20-10,70-10S320,180,320,180z"/>
    <path class="st4" d="M180,320c0,0,20,30,70,30s70-30,70-30s-20,10-70,10S180,320,180,320z"/>
    <path class="st4" d="M320,320c0,0-20,30-70,30s-70-30-70-30s20,10,70,10S320,320,320,320z"/>
    <path class="st4" d="M180,180c0,0,20-30,70-30s70,30,70,30s-20-10-70-10S180,180,180,180z"/>
  </g>
</svg>
